<?xml version="1.0" encoding="UTF-8"?>
<!DOCTYPE svg PUBLIC "-//W3C//DTD SVG 1.1//EN" "http://www.w3.org/Graphics/SVG/1.1/DTD/svg11.dtd">
<!-- Creator: CorelDRAW -->
<svg xmlns="http://www.w3.org/2000/svg" xml:space="preserve" width="2775px" height="3908px" version="1.1" style="shape-rendering:geometricPrecision; text-rendering:geometricPrecision; image-rendering:optimizeQuality; fill-rule:evenodd; clip-rule:evenodd"
viewBox="0 0 400.27 563.71"
 xmlns:xlink="http://www.w3.org/1999/xlink"
 xmlns:xodm="http://www.corel.com/coreldraw/odm/2003">
 <defs>
  <style type="text/css">
   <![CDATA[
    .fil2 {fill:#FEFEFE}
    .fil0 {fill:#016FBB}
    .fil1 {fill:#15A0DC}
   ]]>
  </style>
 </defs>
 <g id="Слой_x0020_1">
  <metadata id="CorelCorpID_0Corel-Layer"/>
  <path class="fil0" d="M200.29 476.76l-7.97 -2.16c-3.11,-0.84 -6.42,-1.81 -9.45,-2.59 -2.81,-0.72 -7.81,-1.26 -9.52,-3.15 -3.05,0.08 -6.45,-1.36 -9.28,-2.11 -1.55,-0.38 -2.67,-0.67 -4.3,-1.1 -0.72,-0.19 -1.17,-0.27 -1.87,-0.53 -2.31,-0.86 -0.98,-0.1 -1.98,-1.07 -2.63,0.19 -5.98,-1.19 -8.8,-2.01 -2.26,-0.67 -6.9,-1.53 -8.74,-2.5 -1.62,-0.26 -2.85,-0.64 -4.52,-1.06 -2.04,-0.52 -2.69,-0.46 -3.79,-1.64 -2.53,0.2 -7.33,-1.44 -9.87,-2.12 -1.22,-0.36 -2.45,-0.75 -3.72,-1.1 -0.63,-0.17 -1.25,-0.27 -1.89,-0.48 -2.79,-0.9 -1.05,-0.13 -1.95,-1.11l-2.5 -0.3c-2.69,-0.47 -6.7,-1.08 -8.42,-2.66 -2.19,0.13 -3.61,-0.48 -5.46,-1.03l0.15 -6.09c-0.71,-0.95 -0.28,0.33 -0.68,-1.69 -0.21,-1.08 -0.15,-1.86 -0.17,-2.96 -0.25,-3.02 -0.88,-5.36 -0.35,-8.57 -0.94,-1.31 -1.4,-10.18 -1.45,-11.86 -0.21,-3.12 -0.86,-5.17 -0.35,-8.57 -0.65,-0.91 -0.08,0.36 -0.49,-1.21 -0.02,-0.08 -0.19,-0.96 -0.2,-1.03l-1.37 -17.44c-0.35,-2.8 -0.79,-4.91 -0.35,-7.97l-1.15 -9.79 51.82 -0.01 0.75 8.75 0.6 9.02 0.61 9.01 0.6 9.02 0.34 3.61c0.13,0.1 0.33,0.19 0.44,0.25 0.1,0.06 0.3,0.18 0.43,0.25l2.85 1.55c2.88,-0.19 14.6,3.6 18.19,4.52 1.58,0.43 2.7,0.73 4.26,1.15 0.79,0.21 1.12,0.24 1.92,0.54 2.3,0.85 0.96,0.08 1.98,1.05 2.38,-0.06 6.37,1.09 8.56,2 1.8,0.35 2.76,0.64 4.48,1.12 0.81,0.23 1.63,0.4 2.41,0.66 2.6,0.83 1.12,0.21 1.97,1.03l0.87 -0.15 7.36 1.66 -0.15 -79.34 -15.63 0 -0.6 0 -17.43 0 -0.6 0 -17.43 0 -0.6 0 -17.43 0 -0.6 0 -17.43 0 -0.6 0 -17.43 0 -0.6 0c-1.01,0 -2.79,0.12 -3.68,0.05 -3.48,-0.28 -1.73,0.33 -2.08,-0.81 -0.65,-0.86 -0.14,0.33 -0.56,-1.21l-0.89 -10.05c-0.15,-3.39 -0.92,-6.4 -0.36,-9.77 -0.62,-0.88 -0.1,0.33 -0.51,-1.21 -0.09,-0.31 -0.23,-1.25 -0.27,-1.59 -0.12,-1.15 -0.1,-2.55 -0.17,-3.76l-0.25 -6.67c-1.03,-1.47 -1.52,-12.14 -1.5,-13.67l-0.46 -4.12c4.42,-1.63 15.28,-8.35 18.82,-8.79 1.6,-1.96 6.68,-3.99 9.33,-4.97l0.28 0.16c1.41,-1.76 5.85,-3.62 8.3,-4.49 2.25,-1.49 16.14,-8.48 18.15,-8.73 1.58,-1.94 6.68,-4.01 9.33,-4.97l0.28 0.16c1.64,-2 5.59,-3.53 8.3,-4.49 2.26,-1.49 16.13,-8.48 18.15,-8.73 1.13,-1.42 1.56,-1.29 3.38,-2.17 0.51,-0.25 1.2,-0.58 1.47,-0.83 1.12,-1.02 1.77,-0.04 0.28,-0.92 -6.4,0.03 -90.92,0.63 -97.99,0.03 -0.94,-0.08 -0.79,-0.11 -1.52,-0.28l-0.85 -0.35 -0.61 -7.21 -1.02 -10.22 -0.77 -9.61 -0.61 -9.02 -0.65 -6.61 -0.65 -7.25 9.71 -0.01 9.01 0 9.02 0 9.02 0 9.01 0 9.02 0 9.01 0 9.02 0 9.01 0 9.02 0 9.01 0 9.02 0 9.01 0 7.82 0.01 0 -48.64 161.07 0 -3.84 43.06c-4.18,41.6 -7.75,90.56 -11.62,130.58 -0.51,5.19 -0.54,5.71 -0.84,10.27 -0.27,3.92 -0.79,6.58 -1.11,10.87l-5.91 66.83c-0.91,8.14 -1.35,14.45 -1.94,22.71 -0.91,12.89 -5.41,53.66 -5.55,64.27 -4.78,0.96 -11.18,3.05 -16.32,4.48l-113.88 30.82 0.09 -52.94zm199.98 -366.35l-400.27 0c0.15,0.16 0.45,0.04 0.58,0.31 0.69,1.35 3.77,0.25 5.43,0.23 -1.45,0.91 -3.97,0.52 -5.41,1.2l0.95 12.27c0.63,4.55 0.45,8.8 1.1,13.32l4.52 50.74c0.85,17.75 3.02,33.8 4.38,51.53l19.53 225.88c0.94,8.82 1.08,17.68 2.32,26.36l2.06 26.19c4.19,0.09 8.17,1.78 12.09,2.93l94.81 26.59c3.79,1.11 7.69,2.13 11.75,3.28 4.81,1.36 44.02,13.47 47.9,12.4 8.17,-2.26 15.82,-4.41 23.9,-6.81 7.63,-2.26 15.77,-4.37 23.51,-6.54 19.54,-5.46 39.59,-10.27 59.12,-16.61 2.29,-0.74 3.87,-0.89 6.17,-1.64l41.24 -11.65c2.58,-0.6 3.75,-0.84 6.28,-1.57 2.6,-0.76 2.3,-0.89 2.58,-4l1.51 -16.36c0.04,-0.66 0.34,-3.81 0.5,-5.98 0.11,-1.62 0.1,-2.75 0.33,-4.8l3.67 -42.56c2.58,-18.9 2.54,-37.09 4.86,-55.81 2.08,-16.75 2.94,-38.62 4.94,-56.25l2.47 -28.94c0.12,-1.06 0.15,-2.12 0.18,-2.57 1.11,-18.74 3.46,-37.13 4.83,-55.73l11.2 -128.34c0.1,-0.87 0.14,-0.84 0.17,-2.19 0.04,-1.55 0.02,-0.88 0.2,-3.14l0.6 -1.74z"/>
  <path class="fil1" d="M200.14 194.45l1.2 0.04 9.01 0 9.02 0 9.01 0 9.02 0 9.01 0 9.02 0 9.01 0 9.02 0 9.01 0 9.02 0 9.02 0 9.01 0 9.02 0 7.3 -0.09c-0.06,1.2 -0.03,2.59 -0.21,3.74 -0.47,2.99 -0.02,1.2 -0.78,2.07 0.57,3.52 0.05,4.84 -0.3,8.1 -0.02,2.39 -0.39,4.81 -0.5,6.71 -0.15,2.48 0.4,4.22 -1.01,5.62l0.12 5.11 -1.02 9.46 -0.81 9.77c-3.21,1.97 -7.4,4.88 -10.9,5.11 -1.95,2.39 -15.03,7.88 -18.94,10.04 -3.14,1.73 -5.83,2.73 -9.12,4.55 -2.96,1.63 -6.19,3.84 -9.2,4.04 -1.92,2.35 -14.01,7.37 -17.74,9.44 -1.93,1.18 -4.09,2.43 -6.3,2.54 -1.15,1.47 -1.42,1.29 -3.31,1.99 -0.77,0.92 -2.28,1.49 -3.44,2.08 -1.98,1.01 -2.02,1.21 -4.07,1.38 -1.23,1.5 -6.94,4.29 -9.2,5.25l-7.48 3.41c0,0 -1.41,0.46 -0.46,1.25l93.25 -0.06c3.82,0.39 2,-0.62 2.31,1.26l0 1.21 -0.74 8.41c-0.07,2.08 -0.27,3.66 -0.38,5.47 -0.06,0.94 -0.02,2.08 -0.16,2.95 -0.47,2.86 -0.08,1.31 -0.82,2.11 0.62,3.83 0.04,5.2 -0.3,8.7l-0.6 8.42 -0.79 8.41c-0.18,2.07 -0.33,3.21 -0.46,5.4 -0.04,0.56 -0.1,1.98 -0.16,2.46 -0.34,2.7 0.22,1.24 -0.69,2.07 0.54,3.48 -0.11,5.26 -0.31,8.7l-1.12 13.83c-0.05,0.91 -0.02,1.47 -0.19,2.41 -0.49,2.8 -0.05,1.26 -0.79,2.1 0.61,3.9 -0.1,5.24 -0.3,8.71 -0.01,2.25 -0.34,4.21 -0.48,6.1 -0.09,1.17 -0.06,2.43 -0.18,3.55 -0.26,2.23 0.02,1.7 -0.84,2.68l0.11 5.1 -1.01 9.61 -0.61 9.02c-0.23,1.91 -0.41,3.74 -0.54,5.45 -0.06,0.91 -0.07,2.12 -0.2,2.97 -0.43,2.7 0.04,1.22 -0.76,2.11 0.52,3.18 0.3,4.65 -0.3,7.5l-0.15 4.81 -2.85 1.33c-2.57,1.02 -6.54,2.26 -9.31,1.98 -2.05,2.3 -14.39,4.16 -18.34,5.7l-9.02 2.41 -8.41 2.26 -0.89 -0.16c-0.68,0.76 -0.25,0.47 -1.49,0.95 -0.02,0 -1.99,0.54 -2.34,0.64 -1.85,0.5 -3.04,0.97 -4.94,1.12 -2.07,1.31 -5.91,2.35 -8.66,2.1 -1.5,1.69 -7.44,2.47 -9.92,3.16 -2.18,1.05 -5.96,1.63 -8.51,2.44 -2.73,0.86 -6.22,1.77 -8.93,2.51l-9.01 2.53 -1.05 0.27 -0.09 52.94 113.88 -30.82c5.14,-1.43 11.54,-3.52 16.32,-4.48 0.14,-10.61 4.64,-51.38 5.55,-64.27 0.59,-8.26 1.03,-14.57 1.94,-22.71l5.91 -66.83c0.32,-4.29 0.84,-6.95 1.11,-10.87 0.3,-4.56 0.33,-5.08 0.84,-10.27 3.87,-40.02 7.44,-88.98 11.62,-130.58l3.84 -43.06 -161.07 0 0 48.64zm0.15 231.44l1.05 -0.14c3.45,-1.2 14.67,-4.49 17.72,-4.38 0.98,-0.96 -0.31,-0.23 1.96,-1.04 0.99,-0.36 1.45,-0.39 2.42,-0.65 1.68,-0.44 2.61,-0.74 4.34,-1.14 2.08,-0.81 6.24,-2.07 8.71,-1.98 1.38,-1.47 15.53,-4.83 18.94,-5.83l0.6 -4.08 0.6 -9.02 0.6 -9.01 0.6 -9.02 0.6 -8.41 0.61 -9.62 0.6 -8.41 0.6 -6.59 -4.81 -0.02 -9.02 0 -9.01 0 -9.02 0 -9.01 0 -9.02 0 -9.01 0 -1.2 0 0.15 79.34z"/>
  <path class="fil2" d="M213.36 46.64l0 0.6 0 7.21c-1.25,1.11 0.51,0.17 -1.32,0.66l-46.76 -0.06c-0.58,0.37 -0.18,0.26 -1.25,0.57 -0.18,0.05 -0.82,0.04 -0.97,0.04l-0.19 19.38 70.38 0.09 0.05 -44.72 -0.11 -1.8 -50.72 0.24 0 -8.9 50.81 0.01 0.02 -18.4 -0.03 -1.2 -70.4 0 0 45.68 48.13 -0.05c0.76,0.04 0.88,0.07 1.58,0.22l0.78 0.43z"/>
  <path class="fil2" d="M295.07 46.74l-0.03 8.48 -50.79 0.07 0.01 19c1.86,1.86 47.22,0.88 53.24,0.85 2.59,-0.02 15.47,0.81 17.43,-0.85l0 -45.69 -50.75 0.21 -0.31 -0.88c-0.03,-0.18 -0.11,-0.85 -0.12,-1.08l0.09 -7.26 51.03 0 0.06 -0.6 0 -18.63 -70.32 0 0 45.68 38.47 0c2.78,0 9.92,-0.88 11.99,0.7z"/>
  <path class="fil2" d="M81.03 72.49l0.32 2.76 69.88 0 0.33 -2.76 0.11 -17.44 -0.82 0.12 -50.12 0.09 0 -35.3 50.59 0 0.24 -1.56c0.09,-3.96 0.57,-15.2 -0.29,-18.4l-69.96 0.04c-0.87,3.25 -0.47,64.2 -0.28,72.45z"/>
 </g>
</svg>
