<?xml version="1.0" encoding="UTF-8"?>
<!DOCTYPE svg PUBLIC "-//W3C//DTD SVG 1.1//EN" "http://www.w3.org/Graphics/SVG/1.1/DTD/svg11.dtd">
<!-- Creator: CorelDRAW -->
<svg xmlns="http://www.w3.org/2000/svg" xml:space="preserve" width="5152px" height="2076px" version="1.1" style="shape-rendering:geometricPrecision; text-rendering:geometricPrecision; image-rendering:optimizeQuality; fill-rule:evenodd; clip-rule:evenodd"
viewBox="0 0 609.29 245.55"
 xmlns:xlink="http://www.w3.org/1999/xlink"
 xmlns:xodm="http://www.corel.com/coreldraw/odm/2003">
 <defs>
  <style type="text/css">
   <![CDATA[
    .fil0 {fill:#E44C25}
    .fil3 {fill:#EBEBEB}
    .fil1 {fill:#F06427}
    .fil2 {fill:#FEFEFE}
   ]]>
  </style>
 </defs>
 <g id="Слой_x0020_1">
  <metadata id="CorelCorpID_0Corel-Layer"/>
  <path class="fil0" d="M193.36 223.74c0.1,-0.09 0.27,-0.34 0.33,-0.24l1.41 -0.73c0.36,-0.13 1.49,-0.39 1.95,-0.5 5.03,-1.24 4.36,-0.61 5.25,-14.45l3.83 -41.5c2.02,-18.05 3.59,-37.1 4.99,-55.58 2.8,-37 7.07,-73.61 10.17,-110.71l-221.29 -0.03 12.44 137.5c0.95,9.03 1.73,18.61 2.49,27.53 1.59,18.67 3.65,36.86 4.89,55.81 3.47,1.85 16.82,4.93 21.34,6.14 7.38,1.98 14.45,4.06 21.85,5.88l43.32 11.85c5.46,1.59 5.54,0.71 10.87,-0.77 11.77,-3.28 74.49,-20.4 76.16,-20.2z"/>
  <path class="fil1" d="M41.61 51.13l-0.42 -6.02 138.65 -0.04 -0.79 4.8c0.89,2.83 -0.96,15.56 -1.31,19.5l-0.27 2.75c-4.02,0.92 -96.94,0.09 -104.25,0.16 -2.87,0.07 -0.7,-0.18 -1.63,1.02 2.8,-1.08 37.32,-0.53 39.37,-0.17 -0.93,2.56 -0.59,23.16 -0.13,26.78l63.63 0.07 0.31 0.92 -7.44 82.58c-9.7,2.65 -18.98,5.14 -28.47,7.71 -4.3,1.17 -25.77,7.56 -28.69,7.41l-1.47 -0.07c2.79,2.15 2.45,0.44 2.46,0.42 -1.23,2.12 -1.04,24.22 -0.41,28 5.92,-1.03 71.39,-19.07 72.9,-20.08 0.61,-0.68 12.1,-129 13.21,-141.56 0.69,-7.95 1.52,-15.61 2.13,-23.56 0.58,-7.58 1.85,-16.67 2.07,-23.87l-90.46 0.15c-0.24,5.51 -0.6,21.74 0.19,26.21 -8.9,0 -66.55,-0.91 -70.07,0.57 -0.57,1.79 -0.42,3.28 0.37,5.35 0.05,0.15 0.2,0.56 0.25,0.48 0.04,-0.08 0.15,0.34 0.27,0.49z"/>
  <path class="fil2" d="M513.19 105.61l-0.14 59.46 20.19 -0.04 -0.3 -85.06 -29.32 -0.05 -19.93 54.12c-0.84,2.77 -1.21,6.2 -2.55,8.23 -0.81,-2.24 -1.34,-5.6 -2.15,-8.18 -2.36,-7.47 -19.72,-52.4 -19.76,-54.17l-30.59 -0.03 -0.13 85.24 18.53 0.05c1.39,-5.45 -0.29,-59.37 -0.54,-68.96 0.92,1.23 1.14,2.97 1.47,4.49 0.33,1.54 0.7,3.14 1.12,4.7 1.25,4.62 13.7,36.54 16.16,42.9 1.3,3.35 5.24,14.84 6.72,16.84l16.76 0.02c2.35,-4.83 15.79,-42.44 19.01,-50.95 4.25,-11.24 2.88,-9.63 5.49,-18.02 1.07,1.71 -0.27,6.77 -0.04,9.41z"/>
  <path class="fil3" d="M41.61 51.13c0.99,8.54 5.97,74.01 7.16,75.67 1.07,1.15 28.4,0.52 30.36,0.52 10.21,0 20.91,-0.3 31.04,0.03l34.17 0.01 -1.23 15.42c1.72,-1.48 2.04,-14.37 2.04,-16.26l-96.08 0c1.75,1.44 26.12,0.49 30.06,0.49 8.5,0 23.29,0.87 31.04,-0.18 0.59,-3.07 0.28,-15.4 0.29,-20.02l0.14 -6.01 64.17 0.1 -0.31 -0.92c-8.97,-0.4 -97.57,0.55 -100.52,-0.26l-2.35 -26.42c0.93,-1.2 -1.24,-0.95 1.63,-1.02 7.31,-0.07 100.23,0.76 104.25,-0.16l0.27 -2.75c-0.91,1.05 -0.9,-1.7 -1.05,2.17l-66.23 -0.21 -0.17 -25.73 68.99 -0.04c-0.57,2.44 -0.78,1.89 -0.23,4.31l0.79 -4.8 -138.65 0.04 0.42 6.02z"/>
  <path class="fil2" d="M143.11 142.78c-0.32,3.27 -1,17.24 -2,19.03 -1.29,1.83 -24.35,6.42 -29.26,8.4l-1.52 1.64c0.42,4.22 -0.17,26.7 -0.16,26.75 2.92,0.15 24.39,-6.24 28.69,-7.41 9.49,-2.57 18.77,-5.06 28.47,-7.71l7.44 -82.58 -64.17 -0.1 -0.14 6.01c-0.01,4.62 0.3,16.95 -0.29,20.02 -7.75,1.05 -22.54,0.18 -31.04,0.18 -3.94,0 -28.31,0.95 -30.06,-0.49l96.08 0c0,1.89 -0.32,14.78 -2.04,16.26z"/>
  <path class="fil2" d="M272.2 113.86c-0.81,-1.16 -0.66,-1.01 -0.62,-3.59 0.02,-1.48 0.01,-2.96 0.01,-4.44 0,-5.98 -0.35,-21.73 0.17,-25.65l-20.49 -0.08 0.12 84.74 20.36 0 -0.15 -34.78c2.75,-0.88 36,-0.87 38.59,0l0.24 34.69 20.43 -0.13 0 -84.68 -20.84 -0.04 -0.08 33.86 -37.74 0.1z"/>
  <polygon class="fil2" points="343.11,95.42 369.23,95.48 369.4,165.03 390.01,165.1 389.92,95.6 416.32,95.45 416.32,79.88 343.28,79.89 "/>
  <path class="fil2" d="M609.29 165.08l-0.06 -14.95c-7.23,-0.62 -29.17,0.98 -33.92,-0.52 -0.56,-1.53 -0.7,-64.19 -0.2,-69.5l-20.43 0 0.15 84.7 54.46 0.27z"/>
  <path class="fil3" d="M108.7 198.53l1.47 0.07c-0.01,-0.05 0.58,-22.53 0.16,-26.75l1.52 -1.64c-1.75,0.23 -1.89,0.61 -2.73,-0.48 -2.03,0.23 -26.41,-6.24 -29.46,-7.4l-1.86 -21.24c-2.53,-0.87 -23.58,-0.42 -27.84,-0.34 -0.15,3.82 3.15,40.81 4.01,42.44 2.44,1.74 22.76,6.49 27.72,7.88 8.66,2.43 18.86,4.62 27.01,7.46z"/>
  <path class="fil2" d="M177.74 69.37c0.35,-3.94 2.2,-16.67 1.31,-19.5 -0.55,-2.42 -0.34,-1.87 0.23,-4.31l-68.99 0.04 0.17 25.73 66.23 0.21c0.15,-3.87 0.14,-1.12 1.05,-2.17z"/>
  <path class="fil1" d="M109.12 169.73c0.84,1.09 0.98,0.71 2.73,0.48 4.91,-1.98 27.97,-6.57 29.26,-8.4 1,-1.79 1.68,-15.76 2,-19.03l1.23 -15.42 -34.17 -0.01c1.33,3.96 0.39,16.3 0.39,21.34 0,4.45 -0.65,17.3 0.36,20.91l-1.8 0.13z"/>
  <path class="fil0" d="M174.46 99.98l-63.63 -0.07c-0.46,-3.62 -0.8,-24.22 0.13,-26.78 -2.05,-0.36 -36.57,-0.91 -39.37,0.17l2.35 26.42c2.95,0.81 91.55,-0.14 100.52,0.26z"/>
 </g>
</svg>
