<?xml version="1.0" encoding="UTF-8"?>
<!DOCTYPE svg PUBLIC "-//W3C//DTD SVG 1.1//EN" "http://www.w3.org/Graphics/SVG/1.1/DTD/svg11.dtd">
<!-- Creator: CorelDRAW -->
<svg xmlns="http://www.w3.org/2000/svg" xml:space="preserve" width="2050px" height="2320px" version="1.1" style="shape-rendering:geometricPrecision; text-rendering:geometricPrecision; image-rendering:optimizeQuality; fill-rule:evenodd; clip-rule:evenodd"
viewBox="0 0 167.02 189"
 xmlns:xlink="http://www.w3.org/1999/xlink"
 xmlns:xodm="http://www.corel.com/coreldraw/odm/2003">
 <defs>
  <style type="text/css">
   <![CDATA[
    .fil3 {fill:black}
    .fil2 {fill:#4C4D4D}
    .fil0 {fill:#D4B830}
    .fil1 {fill:#FDD93C}
   ]]>
  </style>
 </defs>
 <g id="Слой_x0020_1">
  <metadata id="CorelCorpID_0Corel-Layer"/>
  <g id="_1914967038448">
   <polygon class="fil0" points="0,0 167.02,0 151.8,169.36 83.14,189 15.25,170.29 "/>
   <path class="fil1" d="M142.44 54.21l-31.29 0.03 0 21.31 29.34 0.04c0.18,1.26 -4.48,51.31 -4.97,56.31 -0.17,1.64 -0.35,6.6 -0.77,7.75l-45.37 10.4 -0.06 -21.74 25.92 -4.73 2.55 -27.07 -28.47 0 0 -63.15 55.19 0c-0.63,1.67 -1.57,17.68 -2.07,20.85zm-58.93 120.44l6.29 -1.7c2.18,-0.63 4.25,-1.15 6.4,-1.77 4.16,-1.22 8.38,-2.29 12.65,-3.51 8.43,-2.41 17.05,-4.6 25.29,-7.02l3.87 -1.03c0.74,-0.26 0.8,-0.4 0.87,-1.86l6.68 -74.67c0.7,-7.85 1.76,-17.73 2.21,-25l4 -44.11 -68.26 0 0 160.67z"/>
   <path class="fil2" d="M142.44 54.21c0.5,-3.17 1.44,-19.18 2.07,-20.85l-55.19 0 0 63.15 28.47 0 -2.55 27.07 -25.92 4.73 0.06 21.74 45.37 -10.4c0.42,-1.15 0.6,-6.11 0.77,-7.75 0.49,-5 5.15,-55.05 4.97,-56.31l-29.34 -0.04 0 -21.31 31.29 -0.03z"/>
   <path class="fil3" d="M31.25 33.35l1.97 20.9 23.73 0.09 -0.01 70.95 -11.63 -1.76c-0.33,-1.89 -1.06,-11.4 -1.33,-14.62l-0.05 -1.98 -21.09 0 2.95 32.79 52.09 10.29 0 -116.66 -46.63 0z"/>
  </g>
 </g>
</svg>
