<?xml version="1.0" encoding="UTF-8"?>
<!DOCTYPE svg PUBLIC "-//W3C//DTD SVG 1.1//EN" "http://www.w3.org/Graphics/SVG/1.1/DTD/svg11.dtd">
<!-- Creator: CorelDRAW -->
<svg xmlns="http://www.w3.org/2000/svg" xml:space="preserve" width="1565px" height="793px" version="1.1" style="shape-rendering:geometricPrecision; text-rendering:geometricPrecision; image-rendering:optimizeQuality; fill-rule:evenodd; clip-rule:evenodd"
viewBox="0 0 214.36 108.67"
 xmlns:xlink="http://www.w3.org/1999/xlink"
 xmlns:xodm="http://www.corel.com/coreldraw/odm/2003">
 <defs>
  <style type="text/css">
   <![CDATA[
    .fil2 {fill:black}
    .fil0 {fill:#777BB3}
    .fil1 {fill:#FEFEFE}
   ]]>
  </style>
 </defs>
 <g id="Слой_x0020_1">
  <metadata id="CorelCorpID_0Corel-Layer"/>
  <path class="fil0" d="M88.76 40.75c0.41,-0.88 3.93,-19.86 4.46,-22.53 1.81,-9.15 0.41,-7.88 10.05,-7.88 2.26,0 6.81,-0.54 8.03,0.86 1.57,1.8 -1.71,10.84 -1.89,14.77 11.52,0 26.79,-1.61 28.35,12.54 -0.04,-0.21 1.35,-6.94 1.55,-7.94 0.79,-3.98 0.47,-4.6 4.95,-4.6 6.35,0.01 12.69,0 19.04,0 6.17,0 11.41,0.08 16.4,2.68 3.91,2.04 7.24,5.38 8.63,10.41 1.42,5.14 0.7,11.65 -1.06,16.4 -1.69,4.54 -2.83,5.79 -5.35,9.01l-2.31 2.37c-9.06,7.83 -16.62,7.15 -30.95,7.15 -0.49,1.6 -0.81,3.91 -1.15,5.64 -2.26,11.73 -0.66,9.99 -10.35,9.99 -6.99,0 -9.53,1.13 -8.44,-4.58 0.69,-3.65 1.72,-7.74 2.18,-11.36 -1.94,0.6 -6.16,0.31 -8.43,0.31 -2.38,0 -6.35,0.6 -7.68,-0.93 -1.09,-1.25 0.16,-5.25 0.5,-6.97 1.31,-6.72 3.12,-15.07 4.16,-21.48 0.19,-1.17 0.49,-3.15 -0.45,-3.68 -0.8,-0.45 -2.61,-0.58 -3.63,-0.61 -2.82,-0.08 -5.73,-0.01 -8.55,-0.01 -0.44,0.29 -0.31,0.23 -0.45,0.92l-5.73 29.59c-0.3,1.61 -0.45,2.51 -1.7,2.98 -0.98,0.37 -12.11,0.24 -13.43,0.19 -3.57,-0.13 -2.47,-3.37 -1.95,-6.05 0.45,-2.33 1.19,-5.28 1.42,-7.56 -5.6,8.97 -13.28,12.96 -23.99,13.52 -3.04,0.16 -10.64,-0.07 -12.34,0.13 -0.75,2.79 -1.23,6.29 -1.81,9.16 -0.99,4.96 -0.4,6.45 -4.58,6.44 -15.01,-0.05 -14.64,1.34 -13.04,-7.1 2.32,-12.18 4.64,-24.37 7.1,-36.49 0.79,-3.86 2.8,-15.58 3.55,-18.22 0.49,-1.71 1.7,-1.85 3.68,-1.85l16.3 0c7.17,0 13.35,-0.41 19.4,2.43 5.32,2.49 8.21,6.74 9.51,12.35zm-71.74 -15.98c-0.2,0.41 -1.81,1.74 -2.16,1.87 -0.24,0.32 -0.44,0.46 -0.82,0.84 -0.16,0.15 -0.25,0.25 -0.43,0.37 -0.41,0.27 -0.09,0.1 -0.38,0.18l-1.69 1.57c-0.23,0.41 -2.13,2.59 -2.55,2.75 -0.36,0.83 -1.27,1.61 -1.83,2.42 -0.63,0.83 -1.42,1.89 -1.93,2.77 -0.28,0.49 -0.52,0.87 -0.89,1.35 -0.18,0.49 -1.25,2.56 -1.6,3.05l-0.96 2.46 -0.8 2.65 -0.86 4.51c-0.03,1.53 -0.22,3.01 -0.05,4.56l0.42 3.67c0.48,1.02 0.82,3.16 1.25,4.33 0.26,0.7 0.54,1.39 0.82,2.08 0.28,0.7 0.68,1.22 0.89,1.96 0.4,1.15 1.59,2.77 2.24,3.78 0.78,1.2 1.69,2.37 2.58,3.39 2,2.33 2.79,2.9 4.46,4.74l1.24 1.03c0.32,0.34 0.1,0.05 0.32,0.45 2.11,2.09 7.15,5.53 9.93,7.21 1.79,1.08 3.56,2.1 5.42,3.13l4.32 2.13c0.57,0.25 1,0.36 1.42,0.81l10.96 4.25c0.65,0.21 3.23,0.95 3.72,1.39 0.7,-0.02 5.32,1.47 6.5,1.79 1.03,0.27 6.14,1.32 6.62,1.77l10.93 1.98c0.24,0.04 0.6,0.08 0.83,0.13l0.54 0.19c0.03,-0.04 0.09,0.04 0.14,0.06 0.8,-0.14 4.01,0.48 5.09,0.61 1.23,0.14 4.46,0.18 5.27,0.73 1.11,-0.18 2.46,0.11 3.59,0.2 0.73,0.06 3.09,0.13 3.61,0.42 0.55,-0.17 4.34,0.04 5.42,0.13l0.87 0.19c0.77,-0.27 8.64,-0.03 10.21,-0.03l0.79 0 8.61 -0.31 0.76 -0.03c17.77,-1.16 33.51,-4.13 49.07,-9.55 12.99,-4.53 31.28,-14.02 39.56,-26.6 8.57,-13.03 7.6,-25.86 -1.72,-37.95 -3.76,-4.87 -9.76,-10.02 -15.7,-13.67 -3.03,-1.86 -6,-3.58 -9.44,-5.26 -1.66,-0.81 -3.2,-1.53 -4.96,-2.29 -0.82,-0.36 -4.71,-1.85 -5.02,-2.11l-1.33 -0.48 -2 -0.73 -1.29 -0.45 -1.93 -0.64 -2.89 -0.88 -2.44 -0.74 -1.63 -0.41 -2.49 -0.68 -2.66 -0.69 -2.9 -0.66 -1.85 -0.4 -1.22 -0.25 -2.22 -0.42 -2.74 -0.51 -1.99 -0.3 -2.89 -0.46 -2.24 -0.37c-0.77,0.03 -1.9,-0.01 -2.46,-0.34 -0.58,0.11 -1,0.07 -1.44,-0.17 -0.56,0.08 -1.02,0.09 -1.41,-0.19 -0.7,0.12 -0.95,0.1 -1.37,-0.14 -0.56,0.14 -1.47,0.08 -1.88,-0.18l-1.51 -0.14c-0.42,0.11 -0.42,0.11 -0.93,0.08 -0.12,-0.01 -0.35,-0.05 -0.47,-0.08 -0.68,-0.15 -0.18,-0.03 -0.43,-0.15 -0.54,0.18 -2.94,0.07 -3.38,-0.2 -0.79,0.14 -2.64,0.21 -3.23,-0.17l-2.17 0.03c-1.29,-0.18 1,0.21 -0.29,-0.06 -0.04,-0.01 -0.11,0.01 -0.13,-0.04 -0.03,-0.06 -0.09,-0.03 -0.14,-0.05l-0.22 0.12 -2.73 -0.06 -2.62 -0.03 -1.5 0 -1.94 0.01c-26.05,0.34 -56.92,5.71 -79.22,19.16 -1.53,0.93 -2.96,1.78 -4.35,2.75 -0.71,0.5 -3.55,2.7 -4.08,2.82z"/>
  <path class="fil1" d="M42.26 28.45c2.04,-0.28 5.84,-0.05 8.07,-0.05 6.2,0 18.29,-0.38 23.26,0.65 8.76,1.81 14.07,8.18 12.96,18.62 -1.05,9.89 -6.16,16.2 -12,19.99 -7.6,4.94 -17.95,3.85 -27.91,3.91l-3.02 15.63 -12.83 -0.01 11.47 -58.74zm99.92 -0.03c3.8,-0.22 13.88,-0.02 18.38,-0.02 5.74,0 11.5,-0.31 16.54,1.72 10.46,4.2 11.28,15.73 7.66,25.1 -1.86,4.82 -4.73,8.06 -7.74,10.65 -7.71,6.61 -18.78,5.75 -28.57,5.7 -0.76,0 -1.64,-0.2 -1.89,0.31 -0.23,0.46 -2.81,14.01 -2.96,15.32l-12.83 0 11.41 -58.78zm-56.84 43.15c0.65,-4.75 1.95,-10.04 2.85,-14.8 0.93,-4.92 1.92,-9.83 2.86,-14.72 0.95,-4.95 1.9,-9.83 2.87,-14.74 0.13,-0.65 2.53,-14.39 3.01,-14.55l12.52 0.01 -2.97 15.63c5.9,0 13.3,-0.42 18.94,0.64 14.52,2.72 9.47,14.8 7.33,26.29 -0.68,3.68 -2.76,13.31 -3.02,16.24l-13.02 0c0.54,-3.87 1.55,-8.05 2.3,-11.93 0.76,-3.9 1.53,-7.8 2.28,-11.75 0.87,-4.5 2.1,-8.67 -2.94,-9.69 -3.3,-0.67 -10.14,-0.34 -13.81,-0.31 -0.29,2.59 -2.59,13.48 -3.27,16.96 -0.9,4.61 -2.08,11.47 -3.08,15.95 -0.16,0.72 0.04,0.48 -0.41,0.77l-12.44 0zm3.42 -30.82c-1.3,-5.61 -4.19,-9.86 -9.51,-12.35 -6.05,-2.84 -12.23,-2.43 -19.4,-2.43l-16.3 0c-1.98,0 -3.19,0.14 -3.68,1.85 -0.75,2.64 -2.76,14.36 -3.55,18.22 -2.46,12.12 -4.78,24.31 -7.1,36.49 -1.6,8.44 -1.97,7.05 13.04,7.1 4.18,0.01 3.59,-1.48 4.58,-6.44 0.58,-2.87 1.06,-6.37 1.81,-9.16 1.7,-0.2 9.3,0.03 12.34,-0.13 10.71,-0.56 18.39,-4.55 23.99,-13.52 -0.23,2.28 -0.97,5.23 -1.42,7.56 -0.52,2.68 -1.62,5.92 1.95,6.05 1.32,0.05 12.45,0.18 13.43,-0.19 1.25,-0.47 1.4,-1.37 1.7,-2.98l5.73 -29.59c0.14,-0.69 0.01,-0.63 0.45,-0.92 2.82,0 5.73,-0.07 8.55,0.01 1.02,0.03 2.83,0.16 3.63,0.61 0.94,0.53 0.64,2.51 0.45,3.68 -1.04,6.41 -2.85,14.76 -4.16,21.48 -0.34,1.72 -1.59,5.72 -0.5,6.97 1.33,1.53 5.3,0.93 7.68,0.93 2.27,0 6.49,0.29 8.43,-0.31 -0.46,3.62 -1.49,7.71 -2.18,11.36 -1.09,5.71 1.45,4.58 8.44,4.58 9.69,0 8.09,1.74 10.35,-9.99 0.34,-1.73 0.66,-4.04 1.15,-5.64 14.33,0 21.89,0.68 30.95,-7.15l2.31 -2.37c2.52,-3.22 3.66,-4.47 5.35,-9.01 1.76,-4.75 2.48,-11.26 1.06,-16.4 -1.39,-5.03 -4.72,-8.37 -8.63,-10.41 -4.99,-2.6 -10.23,-2.68 -16.4,-2.68 -6.35,0 -12.69,0.01 -19.04,0 -4.48,0 -4.16,0.62 -4.95,4.6 -0.2,1 -1.59,7.73 -1.55,7.94 -1.56,-14.15 -16.83,-12.54 -28.35,-12.54 0.18,-3.93 3.46,-12.97 1.89,-14.77 -1.22,-1.4 -5.77,-0.86 -8.03,-0.86 -9.64,0 -8.24,-1.27 -10.05,7.88 -0.53,2.67 -4.05,21.65 -4.46,22.53z"/>
  <path class="fil2" d="M53.27 37.68c12.85,0 23.18,-1.82 19.18,13.83 -2.94,11.52 -11.72,10.78 -24.01,10.76l4.83 -24.59zm-22.48 49.51l12.83 0.01 3.02 -15.63c9.96,-0.06 20.31,1.03 27.91,-3.91 5.84,-3.79 10.95,-10.1 12,-19.99 1.11,-10.44 -4.2,-16.81 -12.96,-18.62 -4.97,-1.03 -17.06,-0.65 -23.26,-0.65 -2.23,0 -6.03,-0.23 -8.07,0.05l-11.47 58.74z"/>
  <path class="fil2" d="M153.23 37.72c2.3,-0.26 6.17,-0.06 8.62,-0.04 9.29,0.08 13.5,2.7 10.6,13.77 -3.07,11.72 -11.63,10.84 -24.02,10.83l4.8 -24.56zm-22.46 49.48l12.83 0c0.15,-1.31 2.73,-14.86 2.96,-15.32 0.25,-0.51 1.13,-0.31 1.89,-0.31 9.79,0.05 20.86,0.91 28.57,-5.7 3.01,-2.59 5.88,-5.83 7.74,-10.65 3.62,-9.37 2.8,-20.9 -7.66,-25.1 -5.04,-2.03 -10.8,-1.72 -16.54,-1.72 -4.5,0 -14.58,-0.2 -18.38,0.02l-11.41 58.78z"/>
  <path class="fil2" d="M85.34 71.57l12.44 0c0.45,-0.29 0.25,-0.05 0.41,-0.77 1,-4.48 2.18,-11.34 3.08,-15.95 0.68,-3.48 2.98,-14.37 3.27,-16.96 3.67,-0.03 10.51,-0.36 13.81,0.31 5.04,1.02 3.81,5.19 2.94,9.69 -0.75,3.95 -1.52,7.85 -2.28,11.75 -0.75,3.88 -1.76,8.06 -2.3,11.93l13.02 0c0.26,-2.93 2.34,-12.56 3.02,-16.24 2.14,-11.49 7.19,-23.57 -7.33,-26.29 -5.64,-1.06 -13.04,-0.64 -18.94,-0.64l2.97 -15.63 -12.52 -0.01c-0.48,0.16 -2.88,13.9 -3.01,14.55 -0.97,4.91 -1.92,9.79 -2.87,14.74 -0.94,4.89 -1.93,9.8 -2.86,14.72 -0.9,4.76 -2.2,10.05 -2.85,14.8z"/>
  <path class="fil0" d="M151.4 59.85c11.42,0.28 16.88,-0.35 19.02,-10.41 0.57,-2.67 0.97,-6.62 -1.02,-7.9 -2.14,-1.37 -5.5,-1.44 -8.36,-1.44 -6.3,0 -5.77,-0.51 -6.1,1.28 -0.12,0.71 -0.23,1.31 -0.37,2.02 -0.49,2.48 -3.09,15.08 -3.17,16.45z"/>
  <path class="fil0" d="M51.38 59.85c4.27,0.01 8.86,0.32 12.62,-1.14 3.35,-1.3 4.97,-3.84 6.06,-7.65 0.48,-1.71 0.92,-4.1 0.83,-6.01 -0.12,-2.45 -0.9,-3.48 -2.84,-4.16 -2.82,-0.99 -9.53,-0.95 -12.8,-0.77l-3.87 19.73z"/>
  <path class="fil1" d="M151.4 59.85c0.08,-1.37 2.68,-13.97 3.17,-16.45 0.14,-0.71 0.25,-1.31 0.37,-2.02 0.33,-1.79 -0.2,-1.28 6.1,-1.28 2.86,0 6.22,0.07 8.36,1.44 1.99,1.28 1.59,5.23 1.02,7.9 -2.14,10.06 -7.6,10.69 -19.02,10.41zm-2.97 2.43c12.39,0.01 20.95,0.89 24.02,-10.83 2.9,-11.07 -1.31,-13.69 -10.6,-13.77 -2.45,-0.02 -6.32,-0.22 -8.62,0.04l-4.8 24.56z"/>
  <path class="fil1" d="M55.25 40.12c3.27,-0.18 9.98,-0.22 12.8,0.77 1.94,0.68 2.72,1.71 2.84,4.16 0.09,1.91 -0.35,4.3 -0.83,6.01 -1.09,3.81 -2.71,6.35 -6.06,7.65 -3.76,1.46 -8.35,1.15 -12.62,1.14l3.87 -19.73zm-6.81 22.15c12.29,0.02 21.07,0.76 24.01,-10.76 4,-15.65 -6.33,-13.83 -19.18,-13.83l-4.83 24.59z"/>
 </g>
</svg>
