<?xml version="1.0" encoding="UTF-8"?>
<!DOCTYPE svg PUBLIC "-//W3C//DTD SVG 1.1//EN" "http://www.w3.org/Graphics/SVG/1.1/DTD/svg11.dtd">
<!-- Creator: CorelDRAW -->
<svg xmlns="http://www.w3.org/2000/svg" xml:space="preserve" width="712px" height="866px" version="1.1" style="shape-rendering:geometricPrecision; text-rendering:geometricPrecision; image-rendering:optimizeQuality; fill-rule:evenodd; clip-rule:evenodd"
viewBox="0 0 10.4 12.65"
 xmlns:xlink="http://www.w3.org/1999/xlink"
 xmlns:xodm="http://www.corel.com/coreldraw/odm/2003">
 <defs>
  <style type="text/css">
   <![CDATA[
    .fil0 {fill:#00D8FF}
   ]]>
  </style>
 </defs>
 <g id="Слой_x0020_1">
  <metadata id="CorelCorpID_0Corel-Layer"/>
  <path class="fil0" d="M5.52 7.78l0.44 -0.53c0.08,-0.09 0.35,-0.46 0.41,-0.57 0.17,0 0.54,-0.05 0.72,-0.08 0.25,-0.04 0.46,-0.08 0.68,-0.13 0.13,0.55 0.25,1.38 0,1.93 -0.07,0.15 -0.11,0.21 -0.22,0.3 -0.08,0.07 -0.13,0.08 -0.28,0.08 -0.22,0 -0.39,-0.07 -0.54,-0.14 -0.16,-0.07 -0.31,-0.15 -0.45,-0.24l-0.49 -0.36c-0.04,-0.03 -0.05,-0.06 -0.09,-0.09 -0.07,-0.05 -0.13,-0.1 -0.18,-0.17zm-1.26 -3.18c0,0.33 0.17,0.6 0.39,0.76 0.62,0.46 1.48,-0.02 1.48,-0.75 0,-0.28 -0.12,-0.51 -0.27,-0.65 -0.64,-0.64 -1.6,-0.12 -1.6,0.64zm4.71 6.14l-0.3 0 0 0.36 0.3 0 0 1.11c0,0.25 0.19,0.43 0.44,0.43 0.2,0 0.26,-0.01 0.43,-0.12 -0.02,-0.1 -0.07,-0.2 -0.09,-0.3 -0.1,0.02 -0.04,0.05 -0.22,0.05 -0.09,0 -0.15,-0.1 -0.15,-0.2l0 -0.97 0.34 0c0.03,0 0.04,0 0.04,-0.03l0 -0.3c0,-0.02 -0.01,-0.03 -0.04,-0.03l-0.34 0 0 -0.5 -0.41 0 0 0.5zm-1.19 1.9c0.21,0 0.32,-0.01 0.52,-0.11 0.09,-0.05 0.2,-0.15 0.26,-0.23 -0.09,-0.06 -0.18,-0.18 -0.27,-0.24 -0.03,0.02 -0.05,0.05 -0.07,0.08 -0.14,0.12 -0.23,0.13 -0.4,0.13 -0.3,0 -0.51,-0.27 -0.51,-0.56 0,-0.21 0.01,-0.32 0.14,-0.48 0.15,-0.19 0.5,-0.22 0.68,-0.1 0.11,0.07 0.11,0.11 0.16,0.14 0.07,-0.05 0.2,-0.19 0.27,-0.24 -0.02,-0.03 -0.04,-0.04 -0.06,-0.07 -0.03,-0.04 -0.16,-0.14 -0.21,-0.16 -0.29,-0.16 -0.73,-0.13 -1.01,0.07 -0.06,0.03 -0.09,0.06 -0.13,0.11 -0.4,0.39 -0.37,1.25 0.24,1.56 0.09,0.04 0.25,0.1 0.39,0.1zm-2.53 -0.6c0,-0.2 0.16,-0.33 0.34,-0.33 0.16,0 0.23,-0.01 0.38,0.09 0.03,0.01 0.08,0.05 0.09,0.08 0.02,0.04 0.01,0.12 0.02,0.17 0,0.1 0.06,0.12 -0.12,0.23 -0.25,0.14 -0.71,0.09 -0.71,-0.24zm-0.3 -1.04c0.01,0.03 0.06,0.1 0.08,0.14 0.02,0.03 0.02,0.04 0.04,0.07 0.01,0.02 0.03,0.04 0.04,0.07 0.14,-0.1 0.25,-0.23 0.54,-0.23 0.17,0 0.28,0.05 0.37,0.14 0.09,0.11 0.07,0.26 0.07,0.46 -0.08,-0.06 -0.11,-0.1 -0.23,-0.15 -0.48,-0.21 -1.01,0.05 -1.01,0.48 0,0.22 0.02,0.33 0.18,0.49 0.24,0.24 0.69,0.22 0.94,0.04 0.04,-0.03 0.06,-0.07 0.1,-0.09l0 0.18 0.4 0 0 -1.31c0,-0.36 -0.34,-0.59 -0.7,-0.59 -0.19,0 -0.36,0.01 -0.52,0.09 -0.09,0.05 -0.24,0.12 -0.3,0.21zm-1.29 0.03c0.29,0 0.51,0.2 0.51,0.48l-1.02 0c0,-0.24 0.22,-0.48 0.51,-0.48zm-0.94 0.62c0,0.39 0.19,0.75 0.53,0.89 0.27,0.12 0.63,0.13 0.9,0.02 0.09,-0.04 0.25,-0.13 0.29,-0.2 -0.03,-0.05 -0.15,-0.23 -0.19,-0.26l-0.1 0.08c-0.29,0.2 -0.77,0.17 -0.94,-0.17 -0.07,-0.14 -0.04,-0.16 -0.06,-0.21l1.27 0c0.13,0 0.16,0.02 0.16,-0.06 0,-0.43 -0.16,-0.76 -0.49,-0.94 -0.25,-0.14 -0.59,-0.13 -0.84,-0.01 -0.11,0.05 -0.19,0.11 -0.27,0.19 -0.07,0.08 -0.13,0.18 -0.18,0.28 -0.04,0.1 -0.08,0.24 -0.08,0.39zm-1.04 -0.41l-0.66 0 0 -0.79 0.67 0c0.18,0 0.36,0.17 0.36,0.35 0,0.13 -0.01,0.23 -0.11,0.33 -0.05,0.05 -0.16,0.11 -0.26,0.11zm-1.12 1.35l0.46 0 0 -0.94c0.49,0 0.41,-0.04 0.5,0.1l0.21 0.36c0.06,0.08 0.1,0.16 0.15,0.24 0.05,0.08 0.1,0.16 0.14,0.24l0.52 0 -0.46 -0.74c-0.05,-0.09 -0.11,-0.17 -0.15,-0.26 0.06,-0.02 0.11,-0.01 0.23,-0.08 0.37,-0.22 0.44,-0.66 0.3,-1.02 -0.11,-0.26 -0.42,-0.45 -0.71,-0.45l-1.19 0 0 2.55zm1.9 -4.93c0,-0.21 0.03,-0.44 0.05,-0.62 0.02,-0.1 0.03,-0.2 0.06,-0.28 0.01,-0.07 0.06,-0.22 0.06,-0.27 0.07,0.03 0.64,0.12 0.76,0.13l0.6 0.07c0.07,0.01 0.06,0.04 0.12,0.11l0.61 0.75c0.07,0.09 0.14,0.15 0.21,0.24 -0.06,0.04 -0.09,0.09 -0.14,0.14 -0.06,0.05 -0.03,0.01 -0.1,0.04l-0.49 0.38c-0.03,0.02 -0.05,0.03 -0.08,0.05 -0.25,0.16 -0.5,0.28 -0.79,0.35 -0.05,0.01 -0.21,0.03 -0.26,0.03 -0.18,-0.01 -0.3,-0.07 -0.39,-0.19 -0.15,-0.2 -0.22,-0.59 -0.22,-0.93zm2.15 -0.93c0.22,0 0.38,0.01 0.59,0.01 0.22,0 0.38,-0.01 0.59,-0.01 -0.01,0.04 -0.09,0.14 -0.13,0.19 -0.05,0.06 -0.09,0.12 -0.14,0.18l-0.3 0.36c-0.06,-0.04 -0.26,-0.28 -0.32,-0.35 -0.08,-0.1 -0.24,-0.28 -0.29,-0.38zm-1.55 -1.55c0.05,0.01 0.06,0.05 0.08,0.11 0.08,0.16 0.52,0.88 0.52,0.91 -0.25,0 -0.81,-0.14 -0.91,-0.14 0,-0.08 0.11,-0.37 0.14,-0.45 0.03,-0.08 0.05,-0.14 0.08,-0.21 0.03,-0.08 0.07,-0.15 0.09,-0.22zm3.66 1.02c0.08,-0.15 0.57,-0.96 0.59,-1.05 0.05,0.03 0.17,0.36 0.19,0.42 0.06,0.15 0.13,0.31 0.16,0.46 -0.35,0.08 -0.7,0.11 -0.94,0.17zm-4.41 -0.26c-0.24,-0.02 -0.92,-0.35 -1.11,-0.47 -0.25,-0.14 -0.74,-0.52 -0.74,-0.86 0,-0.58 1.16,-1.1 1.7,-1.25 0.04,-0.01 0.09,-0.03 0.15,-0.04 0.05,0.21 0.33,0.94 0.43,1.15 0.1,0.21 0.07,0.12 -0.07,0.46l-0.25 0.66c-0.04,0.12 -0.06,0.25 -0.11,0.35zm5.8 -0.02c-0.05,-0.18 -0.34,-0.92 -0.44,-1.13 -0.1,-0.2 -0.12,-0.13 0.04,-0.46 0.06,-0.11 0.37,-0.89 0.38,-0.99 0.21,0 0.93,0.31 1.14,0.44 0.11,0.07 0.26,0.16 0.35,0.25 0.11,0.11 0.4,0.33 0.39,0.58 -0.01,0.12 -0.06,0.21 -0.11,0.28 -0.13,0.21 -0.15,0.19 -0.28,0.31 -0.04,0.04 -0.07,0.06 -0.11,0.09 -0.41,0.31 -0.77,0.4 -1.2,0.58 -0.06,0.02 -0.12,0.03 -0.16,0.05zm-2.57 0.35l-0.98 0c-0.08,0 -0.09,-0.01 -0.18,-0.01 -0.17,0 -0.13,0.02 -0.24,-0.15 -0.11,-0.16 -0.21,-0.32 -0.31,-0.48 -0.26,-0.44 -0.29,-0.52 -0.55,-1 0.04,-0.01 0.03,-0.01 0.05,-0.03 0,-0.01 0.02,-0.05 0.02,-0.06 0.02,-0.04 0.04,-0.07 0.06,-0.11 0.19,-0.39 0.47,-0.88 0.7,-1.24 0.04,-0.05 0.12,-0.15 0.13,-0.2 0.25,0 0.43,-0.03 0.72,-0.03l0.99 0.01c0.07,0.01 0.09,0.02 0.18,0.02 0.04,0.07 0.09,0.13 0.14,0.21 0.05,0.08 0.09,0.14 0.14,0.22 0.17,0.26 0.25,0.45 0.39,0.67l0.25 0.48c0.03,0.07 -0.04,0.16 -0.09,0.24 -0.04,0.08 -0.07,0.16 -0.11,0.23 -0.03,0.05 -0.05,0.08 -0.07,0.12 -0.02,0.05 -0.04,0.07 -0.06,0.12 -0.09,0.17 -0.17,0.31 -0.27,0.47 -0.09,0.15 -0.18,0.29 -0.28,0.43 -0.03,0.05 -0.03,0.07 -0.1,0.08 -0.06,0 -0.13,-0.01 -0.19,0 -0.06,0 -0.08,0.01 -0.16,0.01 -0.06,0 -0.12,0 -0.18,0zm1.18 -3.22c0.12,0.01 0.82,0.12 0.91,0.17 -0.01,0.16 -0.27,0.73 -0.3,0.85 -0.04,-0.03 -0.25,-0.42 -0.3,-0.51l-0.31 -0.51zm-3.63 1.02l-0.03 0c-0.02,-0.08 -0.05,-0.14 -0.08,-0.21 -0.05,-0.13 -0.22,-0.56 -0.23,-0.66l0.68 -0.12c0.08,-0.01 0.16,-0.03 0.23,-0.03l-0.29 0.49c-0.07,0.11 -0.26,0.45 -0.28,0.53zm1.49 -1.55c0.14,-0.21 0.37,-0.46 0.52,-0.65 0.04,-0.04 0.03,-0.05 0.09,-0.08 0.03,0.02 0.05,0.04 0.08,0.08l0.15 0.18c0.04,0.03 0.05,0.05 0.08,0.09l0.29 0.38c-0.07,0 -0.08,-0.02 -0.16,-0.02l-0.89 0c-0.08,0 -0.09,0.02 -0.16,0.02zm3.33 -1.07c0,0.55 0,0.58 -0.1,1.12 -0.01,0.04 -0.02,0.09 -0.02,0.12 -0.01,0.11 0.05,0.09 -0.29,0.02l-1.09 -0.16c-0.03,-0.02 -0.29,-0.38 -0.33,-0.44 -0.07,-0.08 -0.46,-0.57 -0.54,-0.63 0.03,-0.05 0.08,-0.09 0.13,-0.13 0.09,-0.07 0.09,-0.11 0.14,-0.14 0.1,-0.09 0.2,-0.17 0.3,-0.24 0.3,-0.23 1.17,-0.77 1.54,-0.37 0.15,0.15 0.26,0.55 0.26,0.85zm-5.28 1.34c-0.09,-0.18 -0.17,-0.93 -0.17,-1.17 0,-0.3 0.05,-0.7 0.2,-0.94 0.18,-0.29 0.58,-0.23 0.85,-0.13 0.35,0.13 0.78,0.39 1.06,0.64 0.08,0.07 0.24,0.2 0.3,0.28l-0.25 0.3c-0.02,0.02 -0.03,0.03 -0.05,0.05l-0.49 0.64c-0.04,0.05 -0.05,0.09 -0.1,0.11 -0.03,0.01 -0.18,0.02 -0.21,0.02 -0.18,0.02 -1.02,0.14 -1.14,0.2zm-0.62 -1.26c0,0.29 0.01,0.51 0.06,0.78 0.01,0.1 0.03,0.21 0.05,0.3 0.03,0.08 0.07,0.21 0.07,0.3 -0.09,0.01 -0.28,0.09 -0.37,0.12 -0.34,0.12 -0.71,0.27 -1,0.46 -0.37,0.24 -0.82,0.63 -0.82,1.12 0,0.59 0.65,1.1 1.11,1.35 0.12,0.07 0.21,0.11 0.34,0.17 0.13,0.06 0.4,0.17 0.54,0.21 0.05,0.01 0.16,0.03 0.2,0.05 0,0.06 -0.02,0.08 -0.03,0.14 -0.09,0.32 -0.15,0.79 -0.15,1.13 0,0.92 0.35,1.73 1.34,1.57 0.65,-0.12 1.27,-0.58 1.76,-1.01 0.04,-0.03 0.06,-0.06 0.11,-0.09 0.04,0.03 0.06,0.04 0.1,0.08l0.42 0.36c0.04,0.03 0.07,0.05 0.11,0.08 0.34,0.25 0.94,0.59 1.37,0.59 0.28,0 0.42,0 0.65,-0.17 0.28,-0.21 0.41,-0.52 0.48,-0.85 0.11,-0.54 0.05,-1.03 -0.04,-1.56 -0.01,-0.07 -0.05,-0.25 -0.07,-0.3 0.25,-0.05 0.5,-0.16 0.72,-0.25 0.51,-0.21 1.25,-0.68 1.41,-1.27 0.07,-0.27 -0.01,-0.55 -0.15,-0.76 -0.03,-0.05 -0.07,-0.09 -0.11,-0.13 -0.07,-0.1 -0.16,-0.18 -0.25,-0.25 0,-0.01 -0.01,-0.01 -0.01,-0.01 0,0 0,-0.01 -0.01,-0.01l-0.1 -0.09c-0.29,-0.19 -0.44,-0.29 -0.79,-0.44 -0.13,-0.06 -0.62,-0.25 -0.74,-0.25l0.11 -0.61c0.1,-0.65 0.11,-1.69 -0.45,-2.11 -0.64,-0.48 -1.61,0.11 -2.14,0.5 -0.08,0.06 -0.5,0.44 -0.54,0.45l-0.42 -0.36c0,0 0,0 -0.01,0l-0.35 -0.26c-0.02,-0.02 -0.04,-0.03 -0.06,-0.04l-0.03 -0.02c-0.02,-0.01 -0.02,-0.01 -0.04,-0.03 -0.13,-0.09 -0.38,-0.2 -0.53,-0.27 -1.08,-0.43 -1.74,0.15 -1.74,1.38z"/>
 </g>
</svg>
