<?xml version="1.0" encoding="UTF-8"?>
<!DOCTYPE svg PUBLIC "-//W3C//DTD SVG 1.1//EN" "http://www.w3.org/Graphics/SVG/1.1/DTD/svg11.dtd">
<!-- Creator: CorelDRAW -->
<svg xmlns="http://www.w3.org/2000/svg" xml:space="preserve" width="1997px" height="1997px" version="1.1" style="shape-rendering:geometricPrecision; text-rendering:geometricPrecision; image-rendering:optimizeQuality; fill-rule:evenodd; clip-rule:evenodd"
viewBox="0 0 170.31 170.31"
 xmlns:xlink="http://www.w3.org/1999/xlink"
 xmlns:xodm="http://www.corel.com/coreldraw/odm/2003">
 <defs>
  <style type="text/css">
   <![CDATA[
    .fil1 {fill:white;fill-rule:nonzero}
    .fil0 {fill:url(#id0)}
   ]]>
  </style>
  <linearGradient id="id0" gradientUnits="userSpaceOnUse" x1="82.21" y1="147.41" x2="82.21" y2="11.37">
   <stop offset="0" style="stop-opacity:1; stop-color:#D64A8A"/>
   <stop offset="1" style="stop-opacity:1; stop-color:#B07DED"/>
  </linearGradient>
 </defs>
 <g id="Слой_x0020_1">
  <metadata id="CorelCorpID_0Corel-Layer"/>
  <g id="_1914978506736">
   <rect class="fil0" width="170.31" height="170.31" rx="23.13" ry="23.13"/>
   <path class="fil1" d="M22.2 83.38c1.12,-0.03 2.03,-0.32 2.73,-0.9 0.71,-0.57 1.18,-1.36 1.41,-2.35 0.23,-1 0.36,-2.7 0.37,-5.11 0.01,-2.42 0.04,-4.01 0.11,-4.78 0.13,-1.21 0.37,-2.18 0.73,-2.92 0.34,-0.73 0.78,-1.33 1.3,-1.77 0.52,-0.44 1.18,-0.78 1.99,-1.01 0.55,-0.14 1.44,-0.21 2.68,-0.21l1.21 0 0 3.42 -0.67 0c-1.49,0 -2.47,0.27 -2.96,0.81 -0.48,0.54 -0.73,1.75 -0.73,3.63 0,3.78 -0.08,6.17 -0.24,7.17 -0.26,1.55 -0.71,2.74 -1.34,3.58 -0.64,0.83 -1.63,1.58 -2.99,2.22 1.61,0.67 2.77,1.68 3.49,3.05 0.72,1.36 1.08,3.59 1.08,6.7 0,2.81 0.02,4.48 0.05,5.01 0.12,0.99 0.41,1.67 0.87,2.06 0.48,0.39 1.39,0.59 2.76,0.59l0.68 0 0 3.42 -1.22 0c-1.41,0 -2.44,-0.12 -3.08,-0.35 -0.91,-0.34 -1.68,-0.87 -2.29,-1.62 -0.61,-0.74 -1,-1.68 -1.18,-2.82 -0.18,-1.14 -0.28,-3.01 -0.29,-5.61 -0.02,-2.59 -0.15,-4.39 -0.37,-5.38 -0.23,-1 -0.69,-1.79 -1.39,-2.37 -0.7,-0.57 -1.6,-0.88 -2.71,-0.91l0 -3.55zm15.63 3.07l3.96 -0.36c0.18,1.6 0.62,2.91 1.31,3.94 0.69,1.02 1.75,1.85 3.19,2.48 1.45,0.63 3.08,0.95 4.88,0.95 1.61,0 3.02,-0.23 4.25,-0.72 1.23,-0.48 2.14,-1.14 2.74,-1.97 0.6,-0.84 0.9,-1.75 0.9,-2.73 0,-0.99 -0.29,-1.85 -0.86,-2.6 -0.58,-0.74 -1.54,-1.36 -2.87,-1.87 -0.85,-0.33 -2.74,-0.85 -5.66,-1.55 -2.92,-0.7 -4.97,-1.36 -6.14,-1.98 -1.51,-0.8 -2.64,-1.8 -3.38,-2.97 -0.75,-1.18 -1.12,-2.5 -1.12,-3.96 0,-1.62 0.46,-3.12 1.37,-4.51 0.91,-1.4 2.24,-2.46 3.99,-3.18 1.75,-0.73 3.7,-1.09 5.83,-1.09 2.36,0 4.44,0.38 6.24,1.14 1.8,0.75 3.18,1.87 4.15,3.35 0.97,1.47 1.49,3.15 1.56,5.01l-4.04 0.31c-0.21,-2 -0.95,-3.52 -2.2,-4.54 -1.25,-1.03 -3.1,-1.54 -5.54,-1.54 -2.55,0 -4.41,0.47 -5.57,1.4 -1.16,0.93 -1.74,2.06 -1.74,3.37 0,1.14 0.41,2.08 1.23,2.82 0.82,0.74 2.92,1.5 6.34,2.27 3.42,0.78 5.77,1.45 7.04,2.03 1.85,0.85 3.22,1.92 4.1,3.23 0.88,1.3 1.31,2.81 1.31,4.51 0,1.69 -0.48,3.28 -1.45,4.77 -0.97,1.5 -2.35,2.66 -4.16,3.49 -1.82,0.83 -3.85,1.24 -6.13,1.24 -2.87,0 -5.27,-0.42 -7.21,-1.26 -1.95,-0.83 -3.47,-2.09 -4.57,-3.78 -1.11,-1.68 -1.69,-3.58 -1.75,-5.7zm45.57 7.32c-1.45,1.24 -2.85,2.1 -4.19,2.62 -1.34,0.51 -2.78,0.76 -4.32,0.76 -2.53,0 -4.47,-0.62 -5.84,-1.85 -1.36,-1.23 -2.04,-2.81 -2.04,-4.72 0,-1.13 0.26,-2.16 0.77,-3.09 0.52,-0.93 1.19,-1.67 2.02,-2.24 0.84,-0.56 1.77,-0.99 2.82,-1.28 0.76,-0.2 1.93,-0.39 3.47,-0.58 3.16,-0.37 5.49,-0.82 6.98,-1.34 0.01,-0.53 0.02,-0.87 0.02,-1.02 0,-1.58 -0.37,-2.7 -1.11,-3.35 -1,-0.88 -2.49,-1.32 -4.46,-1.32 -1.84,0 -3.2,0.33 -4.08,0.97 -0.88,0.65 -1.52,1.79 -1.94,3.43l-3.82 -0.53c0.35,-1.64 0.92,-2.96 1.72,-3.97 0.79,-1.01 1.95,-1.78 3.46,-2.32 1.5,-0.54 3.26,-0.82 5.24,-0.82 1.97,0 3.57,0.23 4.81,0.7 1.23,0.46 2.14,1.04 2.72,1.74 0.57,0.71 0.98,1.6 1.22,2.67 0.12,0.67 0.19,1.86 0.19,3.59l0 5.18c0,3.62 0.08,5.91 0.25,6.88 0.15,0.97 0.48,1.89 0.95,2.78l-4.09 0c-0.39,-0.82 -0.64,-1.78 -0.75,-2.89zm-0.31 -8.66c-1.42,0.58 -3.55,1.07 -6.4,1.47 -1.61,0.23 -2.75,0.49 -3.42,0.78 -0.66,0.28 -1.17,0.71 -1.54,1.25 -0.36,0.56 -0.54,1.17 -0.54,1.85 0,1.03 0.39,1.9 1.18,2.59 0.79,0.69 1.95,1.03 3.46,1.03 1.51,0 2.85,-0.32 4.02,-0.98 1.17,-0.65 2.04,-1.55 2.59,-2.68 0.42,-0.88 0.63,-2.18 0.63,-3.89l0.02 -1.42zm8.4 4.67l3.86 -0.63c0.22,1.55 0.82,2.74 1.82,3.56 0.99,0.83 2.38,1.24 4.16,1.24 1.79,0 3.13,-0.36 4,-1.09 0.87,-0.73 1.3,-1.59 1.3,-2.57 0,-0.88 -0.39,-1.58 -1.17,-2.08 -0.54,-0.35 -1.88,-0.79 -3.99,-1.33 -2.86,-0.72 -4.84,-1.34 -5.95,-1.86 -1.1,-0.54 -1.94,-1.26 -2.51,-2.19 -0.57,-0.93 -0.85,-1.96 -0.85,-3.08 0,-1.03 0.23,-1.98 0.7,-2.85 0.47,-0.88 1.11,-1.6 1.92,-2.18 0.6,-0.44 1.43,-0.82 2.48,-1.13 1.05,-0.31 2.16,-0.47 3.36,-0.47 1.81,0 3.39,0.26 4.75,0.79 1.37,0.51 2.38,1.23 3.03,2.11 0.65,0.9 1.1,2.09 1.34,3.59l-3.82 0.53c-0.17,-1.2 -0.67,-2.14 -1.5,-2.81 -0.83,-0.68 -2,-1.01 -3.52,-1.01 -1.78,0 -3.06,0.3 -3.82,0.89 -0.76,0.59 -1.15,1.29 -1.15,2.08 0,0.5 0.16,0.96 0.47,1.37 0.32,0.41 0.82,0.76 1.5,1.03 0.39,0.15 1.53,0.48 3.44,1 2.75,0.74 4.68,1.34 5.77,1.81 1.1,0.46 1.96,1.15 2.58,2.04 0.63,0.9 0.94,2.01 0.94,3.34 0,1.29 -0.38,2.52 -1.14,3.66 -0.76,1.15 -1.86,2.04 -3.29,2.67 -1.43,0.63 -3.05,0.94 -4.86,0.94 -2.99,0 -5.28,-0.62 -6.85,-1.86 -1.56,-1.24 -2.56,-3.08 -3,-5.51zm22.2 0l3.87 -0.63c0.21,1.55 0.82,2.74 1.81,3.56 0.99,0.83 2.38,1.24 4.16,1.24 1.8,0 3.13,-0.36 4.01,-1.09 0.86,-0.73 1.3,-1.59 1.3,-2.57 0,-0.88 -0.39,-1.58 -1.17,-2.08 -0.55,-0.35 -1.88,-0.79 -4,-1.33 -2.86,-0.72 -4.83,-1.34 -5.94,-1.86 -1.1,-0.54 -1.94,-1.26 -2.51,-2.19 -0.57,-0.93 -0.86,-1.96 -0.86,-3.08 0,-1.03 0.24,-1.98 0.7,-2.85 0.48,-0.88 1.11,-1.6 1.92,-2.18 0.61,-0.44 1.44,-0.82 2.48,-1.13 1.05,-0.31 2.17,-0.47 3.37,-0.47 1.8,0 3.39,0.26 4.75,0.79 1.37,0.51 2.38,1.23 3.03,2.11 0.64,0.9 1.09,2.09 1.34,3.59l-3.82 0.53c-0.17,-1.2 -0.68,-2.14 -1.5,-2.81 -0.83,-0.68 -2,-1.01 -3.52,-1.01 -1.78,0 -3.06,0.3 -3.83,0.89 -0.76,0.59 -1.14,1.29 -1.14,2.08 0,0.5 0.15,0.96 0.47,1.37 0.32,0.41 0.81,0.76 1.49,1.03 0.4,0.15 1.54,0.48 3.45,1 2.75,0.74 4.67,1.34 5.77,1.81 1.09,0.46 1.95,1.15 2.58,2.04 0.62,0.9 0.94,2.01 0.94,3.34 0,1.29 -0.38,2.52 -1.14,3.66 -0.77,1.15 -1.86,2.04 -3.29,2.67 -1.44,0.63 -3.06,0.94 -4.86,0.94 -2.99,0 -5.28,-0.62 -6.85,-1.86 -1.57,-1.24 -2.57,-3.08 -3.01,-5.51zm34.42 -6.4l0 3.55c-1.12,0.03 -2.03,0.34 -2.73,0.91 -0.7,0.58 -1.18,1.37 -1.41,2.35 -0.22,0.99 -0.35,2.69 -0.37,5.1 0,2.41 -0.04,4 -0.11,4.77 -0.13,1.22 -0.37,2.2 -0.72,2.93 -0.36,0.72 -0.79,1.31 -1.32,1.75 -0.52,0.44 -1.18,0.78 -2,1.01 -0.55,0.15 -1.44,0.24 -2.69,0.24l-1.22 0 0 -3.42 0.68 0c1.5,0 2.49,-0.28 2.99,-0.82 0.49,-0.54 0.73,-1.75 0.73,-3.64 0,-3.61 0.06,-5.89 0.18,-6.86 0.23,-1.6 0.69,-2.88 1.39,-3.84 0.7,-0.96 1.69,-1.7 2.97,-2.25 -1.68,-0.79 -2.87,-1.84 -3.55,-3.14 -0.69,-1.31 -1.03,-3.52 -1.03,-6.63 0,-2.81 -0.02,-4.5 -0.05,-5.04 -0.1,-0.97 -0.38,-1.65 -0.86,-2.02 -0.47,-0.39 -1.4,-0.58 -2.77,-0.58l-0.68 0 0 -3.42 1.22 0c1.41,0 2.44,0.12 3.08,0.35 0.92,0.32 1.68,0.85 2.29,1.6 0.61,0.75 1,1.7 1.18,2.84 0.18,1.14 0.28,3.01 0.29,5.62 0.02,2.59 0.15,4.39 0.37,5.38 0.23,0.99 0.71,1.77 1.41,2.35 0.7,0.58 1.61,0.88 2.73,0.91z"/>
  </g>
 </g>
</svg>
