<?xml version="1.0" encoding="UTF-8"?>
<!DOCTYPE svg PUBLIC "-//W3C//DTD SVG 1.1//EN" "http://www.w3.org/Graphics/SVG/1.1/DTD/svg11.dtd">
<!-- Creator: CorelDRAW -->
<svg xmlns="http://www.w3.org/2000/svg" xml:space="preserve" width="2592px" height="1788px" version="1.1" style="shape-rendering:geometricPrecision; text-rendering:geometricPrecision; image-rendering:optimizeQuality; fill-rule:evenodd; clip-rule:evenodd"
viewBox="0 0 411.16 283.71"
 xmlns:xlink="http://www.w3.org/1999/xlink"
 xmlns:xodm="http://www.corel.com/coreldraw/odm/2003">
 <defs>
  <style type="text/css">
   <![CDATA[
    .fil1 {fill:#FFF105}
    .fil0 {fill:#FFFFFE}
   ]]>
  </style>
 </defs>
 <g id="Слой_x0020_1">
  <metadata id="CorelCorpID_0Corel-Layer"/>
  <path class="fil0" d="M126.95 134.03c-1.32,4.87 -4.82,11.67 -6.8,16.22 -1.31,3.02 -5.34,14.34 -7.44,15.55 -1.51,-1.62 -13.02,-28.42 -13.83,-31.57 -6.45,-8.73 -9.58,-34.67 -20.49,-27.72 -3.88,2.48 -2.78,9.6 -2.79,14.5l0 50.25c-0.05,6.91 0.85,10.7 8.24,8.02 3.09,-5.55 0.92,-40.86 1.4,-50.71 1.81,1.05 15.93,34.54 18.36,40.53 1.87,4.61 3.58,10.79 8.53,11.13 5.76,0.39 7.24,-6.46 9,-10.45 2.09,-4.74 4.07,-9.24 6.06,-13.79 2,-4.56 10.39,-26.01 12.58,-27.7 1.66,14.22 -1.05,32.48 0.2,46.92 0.54,6.36 9.92,8.22 10.06,-2.61l-0.02 -46.96c0.01,-6.57 1.89,-18.2 -4.41,-19.78 -7.25,-1.83 -9.36,6.98 -11.51,12.07 -1.64,3.88 -5.76,14.18 -7.14,16.1zm62.04 74.23c-9.41,2.88 -4.05,13.91 3.34,11.56 7.3,-2.31 4.25,-13.88 -3.34,-11.56zm-3.45 67.43c0.71,5.41 6.33,6.68 8.89,3.08 1.75,-2.48 1.18,-40.08 0.85,-43.43 -0.57,-5.79 -6.75,-6.2 -8.82,-2.88 -1.6,2.57 -1.28,40.47 -0.92,43.23zm52.88 0.66c0.53,2.9 3.24,5.36 6.92,3.89 3.22,-1.29 2.81,-5.1 2.8,-8.5 -0.04,-7.27 0,-14.55 0,-21.83l-0.12 -43.5c-0.48,-2.92 -2.92,-5.31 -6.78,-3.88 -3.05,1.14 -2.9,4.53 -2.87,8.36l0.05 65.46zm-26.82 0.66c0.68,2.86 3.68,4.84 7.12,2.99 2.67,-1.43 2.37,-5.17 2.36,-8.93 -0.03,-11.95 0.86,-60.55 -0.19,-65.27 -0.73,-3.28 -9.66,-9.08 -9.57,5.76 0.07,11.98 -0.85,60.77 0.28,65.45zm17.45 -241.93c-2.16,4.11 -4.09,5.27 -5.67,10.85 -1.29,4.57 -1.09,10.2 -0.32,14.76 2.11,3.1 3.28,13.79 18.81,17.13 8.73,1.88 28.87,-2.49 20.94,-11.6 -6.92,-0.98 -10.26,7.23 -20.82,2.86 -18.1,-7.47 -8.5,-39.42 11.21,-31.7 4.56,1.79 3.52,4.26 9.4,3.41 5.3,-6.97 -3.64,-11.51 -11.73,-12.36 -13.55,-1.43 -18.83,5.86 -21.82,6.65zm45.87 203.62c6.8,-2.62 10.27,1.11 14.14,3.47 4.73,2.89 9.18,-3.17 3.52,-7.53 -14.88,-11.46 -38.47,1.37 -30.22,16.35 4.69,8.51 20.52,6.43 24.46,12.58 3.11,4.85 -2.14,8.85 -6.96,9.35 -7.41,0.77 -11.53,-4.34 -13.77,-5.25 -5.21,-2.13 -8.99,4.07 -3.09,8.45 7.71,5.71 21.2,6.42 28.99,0.38 3.14,-2.43 5.98,-7.55 4.9,-13.75 -1.91,-10.96 -17.4,-10.9 -23.27,-13.81 -6.04,-2.99 -4.44,-8.02 1.3,-10.24zm-218.43 -225.98c7.95,3.79 22.13,-1.34 22.95,2.73 1.41,7.01 -1.48,56.79 1.24,60.92 1.52,2.29 4.69,2.85 7,1.13 2.39,-1.77 2.08,-5.09 2.05,-8.71 -0.1,-14.09 0.01,-28.21 -0.01,-42.31 -0.01,-2.05 -0.31,-9.11 -0.05,-10.58 0.5,-2.82 0.84,-1.83 8.49,-1.81 7.54,0.02 16.44,2.53 15.06,-6.67 -2.06,-3.45 -26.65,-2.08 -31.58,-2.08 -18.65,0 -27.36,-2.57 -25.15,7.38zm143.99 41.6c0.61,19.83 -17.92,18.11 -22.19,14.34 -1.96,-1.73 -2.97,-4.79 -1.67,-7.99 2.75,-6.75 18.61,-7.19 23.86,-6.35zm8.6 22.4c1.07,-6.85 0.37,-17.81 0.4,-25.12 0.02,-8.44 0.3,-11.33 -4.51,-17.59l-1.27 -1.78c-3.15,-0.62 -6.74,-5.47 -19.49,-3.61 -5.84,0.85 -14.86,2.86 -13.77,10.24 4.39,2.65 3.61,1.91 8.39,-0.46 10.79,-5.35 22.46,-1.39 21.5,8.4 -7.14,2.03 -35.49,-1.55 -34,17.96 0.59,7.77 5.85,11.94 13.19,13.29 4.16,0.77 8.69,0.48 12.31,-0.9 4.48,-1.71 4.35,-2.91 8.13,-5.36 0.1,0.17 0.2,0.25 0.24,0.55 1.21,9.81 8.86,4.39 8.88,4.38zm-88.8 -28.13c-0.49,-6.65 6.97,-12.56 14.25,-12.79 8.21,-0.27 14.22,5.08 13.78,13.1l-28.03 -0.31zm-0.03 7.9c8.17,-2.07 25.15,0.96 33.91,-0.57 8.2,-1.42 2.76,-17.34 -3.92,-22.68 -13.25,-10.57 -40.01,-4.34 -39.9,20.35 0.13,32.36 41.62,27.46 44.9,15.45 0.74,-2.71 -0.73,-4.53 -2.96,-4.89 -3.89,-0.61 -6.47,4.16 -11.56,5.6 -10.16,2.86 -20.6,-3.78 -20.47,-13.26zm52.92 93.86c-0.67,-6.63 6.92,-12.57 14.23,-12.84 7.93,-0.29 14.47,5.28 13.63,13.12l-27.86 -0.28zm0.06 7.51c6.56,-0.12 29.8,0.81 34.24,-0.32 6.73,-1.71 3.23,-16.81 -5.14,-23.04 -13.28,-9.89 -39.45,-3.34 -39.21,20.9 0.32,31.46 39.95,27.68 44.58,16.18 1.19,-2.97 -0.02,-5.26 -2.53,-5.68 -3.88,-0.65 -6.71,4.1 -11.61,5.58 -10.33,3.11 -20.6,-3.76 -20.33,-13.62zm-19.73 96.02c0.72,-2.7 2.53,-3.33 5.85,-6.24 2.12,-1.85 3.61,-3.24 5.95,-5.29 1.62,-1.41 5.13,-3.71 5.81,-6.07 0.91,-3.14 -1.33,-6.05 -4.79,-5.69 -2.75,0.29 -10.86,8.62 -12.87,10.49l-9.14 8.73c-1.59,1.62 -0.72,1.61 -2.94,1.94 -0.74,-10.41 -0.15,-22.93 -0.15,-33.57 0,-4.12 0.79,-13.01 -1.66,-14.98 -4.92,-3.95 -8.1,1.22 -8.1,6.39l0.01 37.02c0,2.73 -0.9,29.57 1.13,32.31 2.19,2.96 6.94,1.94 8.11,-0.97 1.21,-2.97 0.19,-17.77 0.72,-22.54 1.7,0.36 2.18,1.61 3.66,3.09 1.25,1.26 1.89,1.78 3.31,3.31 2.29,2.46 4.19,4.32 6.53,6.69 2.47,2.5 4.24,4.7 6.71,7.17 2.42,2.41 3.79,5.08 8.57,4.89 8.79,-4.49 -1.22,-11.41 -4.29,-14.46 -1.86,-1.86 -4.62,-4.79 -6.23,-6.32 -1.79,-1.71 -4.91,-4.16 -6.19,-5.9zm132.24 -204.52c1.89,-13.53 17.12,-16.88 21.65,-8 3.24,6.34 1.14,26.48 2.55,35.6l1.45 0.74c2.54,1.17 5.07,1.31 6.64,-1.21 1.47,-2.35 0.9,-8.43 0.91,-11.67 0.03,-13.78 3.19,-33.55 -14.58,-36.29 -4.04,-0.63 -7.92,-0.17 -11.09,1.36 -4.21,2.03 -4.2,2.81 -6.31,4.93 -0.97,0.97 0.11,0.25 -1.07,0.92 -3.26,-8.36 4.29,-34.9 -4.68,-35.71 -7.27,-0.66 -5.36,9.63 -5.39,15.22 -0.05,9.41 -0.51,57.86 0.48,60.46 1.07,2.81 4.59,3.62 7.17,1.98 4.25,-2.7 0.45,-22.54 2.27,-28.33zm-191.41 164.05c10.99,-2.08 14.27,6 18.86,5.25 4.31,-0.71 4.03,-5.73 1.86,-8.11 -8.3,-9.15 -38.08,-9.1 -41.72,10.41 -5.9,31.54 40.36,19.37 35.41,41.42 -1.43,6.39 -7.89,9.86 -15.89,9.45 -9.27,-0.47 -12.95,-8.9 -17.89,-6.84 -4.8,2.01 -3.51,9.59 7.14,13.58 27.99,10.5 45.85,-15.87 33.08,-31.76 -8.77,-10.92 -29.59,-8.37 -31.91,-19.66 -1.72,-8.39 4.49,-12.49 11.06,-13.74z"/>
  <path class="fil1" d="M13.91 30.54c-3.08,3.35 -6.35,6.39 -9.71,9.74 -4.86,4.82 -6.37,7.56 0.2,12.43l26.8 26.89c3.83,2.02 12.01,-1.38 3.37,-10.02 -2.12,-2.12 -3.6,-3.51 -5.76,-5.77 -2.9,-3.01 -15.72,-14.7 -16.62,-17.49 2.37,-3.9 19.24,-18.82 22.16,-22.78 0.72,-0.97 0.27,-0.2 0.66,-1.09 0.95,-0.6 0.4,0.04 1.72,-1.2 2.24,-2.11 1.57,-4.19 1.27,-6.71 -7.21,-3.97 -5.73,-0.89 -10.35,2.24 -1.21,0.83 -0.42,0.47 -1.82,0.83 -0.35,1.47 0.05,0.61 -0.81,1.84l-11.11 11.09zm364.24 241.27c-10.52,5.93 -3.77,15.74 2.74,10.32l13.42 -14.05 0.3 -0.35c2.53,-1.24 4.11,-3.44 6.12,-5.44 2.02,-1.99 3.64,-3.57 5.64,-5.59 6.8,-6.87 6.11,-7.48 -0.49,-14.05l-0.04 -0.63c-2.08,-1.09 -9.13,-8.62 -11.32,-10.83 -3.89,-3.92 -7.29,-7.33 -11.21,-11.26 -8.6,-8.64 -12.21,-0.57 -10.03,3.39 1.03,1.88 10.05,10.35 11.54,11.14 1.53,3.44 12.22,11.21 14.17,15.45 -1.33,2.49 -7.85,8.45 -10.32,10.89 -1.95,1.93 -3.36,3.33 -5.31,5.27 -1.06,1.06 -1.58,1.64 -2.64,2.66l-2.57 3.08zm-26.49 -38.54c0.98,-0.7 13.09,-13.4 5.84,-16.67 -4.59,-2.07 -6.91,2.31 -8.42,4.61 -1.92,2.94 -3.92,5.27 -5.78,8.11 -4.95,7.58 -19.98,27.35 -22.95,33.15l-0.97 0.88c-19.29,23.97 -3.63,20.41 -2.13,19.25 0.98,-0.76 4.16,-5.58 5.34,-7.23 3.77,-5.34 18.84,-26 20.75,-30.08 1.82,-0.89 3.08,-3.75 4.39,-5.58 1.3,-1.8 3.37,-4.23 3.93,-6.44z"/>
 </g>
</svg>
